<?xml version="1.0" standalone="no"?>
<!DOCTYPE svg PUBLIC "-//W3C//DTD SVG 20010904//EN"
 "http://www.w3.org/TR/2001/REC-SVG-20010904/DTD/svg10.dtd">
<svg version="1.0" xmlns="http://www.w3.org/2000/svg"
 width="1427.000000pt" height="1427.000000pt" viewBox="0 0 1427.000000 1427.000000"
 preserveAspectRatio="xMidYMid meet">
<metadata>
Created by potrace 1.14, written by Peter Selinger 2001-2017
</metadata>
<g transform="translate(0.000000,1427.000000) scale(0.100000,-0.100000)"
fill="#000000" stroke="none">
<path d="M5689 14200 c-13 -11 -29 -24 -35 -29 -7 -5 -14 -8 -16 -5 -3 2 -17
-7 -31 -20 -15 -14 -27 -23 -27 -21 0 2 -44 -18 -97 -44 -54 -27 -116 -54
-138 -61 -22 -6 -47 -14 -55 -17 -8 -4 -21 -5 -27 -4 -7 1 -13 -3 -13 -9 0 -7
-6 -10 -12 -7 -7 2 -26 0 -43 -5 -46 -13 -87 -20 -117 -21 -16 0 -28 -4 -28
-7 0 -4 -10 -6 -23 -5 -20 2 -73 -16 -172 -59 -43 -19 -144 -53 -185 -62 -47
-11 -50 -11 -52 -14 -3 -2 -13 -3 -98 -14 -119 -16 -110 -12 -172 -71 -17 -16
-35 -30 -39 -30 -4 0 -19 -10 -33 -22 -14 -13 -26 -20 -26 -16 0 3 -10 -2 -22
-13 -13 -11 -43 -30 -68 -44 -25 -13 -48 -28 -52 -34 -4 -6 -8 -7 -8 -3 0 5
-16 -1 -35 -13 -19 -12 -35 -18 -35 -15 0 4 -7 1 -16 -6 -9 -7 -21 -14 -28
-15 -20 -3 -116 -65 -116 -75 0 -6 -4 -8 -9 -5 -5 3 -14 -1 -21 -9 -7 -8 -18
-15 -25 -15 -6 0 -22 -9 -35 -20 -13 -11 -31 -20 -42 -20 -10 0 -18 -4 -18 -9
0 -5 -10 -13 -22 -17 -31 -9 -121 -65 -135 -84 -7 -8 -13 -11 -13 -7 0 5 -12
0 -27 -11 -16 -11 -57 -34 -93 -52 -36 -17 -76 -38 -90 -45 -14 -7 -27 -13
-30 -13 -20 -1 -60 -16 -60 -23 0 -5 -6 -6 -13 -3 -8 3 -30 -16 -53 -42 -21
-26 -58 -67 -81 -91 -24 -24 -43 -48 -43 -54 0 -5 -4 -9 -10 -9 -5 0 -22 -12
-38 -27 -16 -16 -44 -39 -61 -53 -18 -14 -44 -35 -59 -47 -14 -12 -39 -28 -54
-34 -15 -6 -28 -16 -28 -21 0 -5 -4 -6 -10 -3 -5 3 -10 1 -10 -4 0 -6 -7 -11
-15 -11 -8 0 -15 -4 -15 -10 0 -5 -9 -10 -19 -10 -11 0 -21 -3 -23 -7 -1 -5
-24 -18 -49 -30 -43 -22 -112 -73 -97 -73 4 0 -3 -10 -15 -23 -73 -78 -114
-127 -109 -132 3 -3 0 -5 -6 -5 -6 0 -26 -14 -44 -31 -18 -16 -46 -40 -62 -52
-16 -12 -40 -32 -53 -44 -12 -12 -23 -20 -23 -17 0 3 -27 -14 -60 -36 -33 -22
-60 -38 -60 -35 0 9 -30 -17 -89 -78 -31 -32 -117 -120 -192 -196 -74 -75
-141 -152 -148 -169 -7 -17 -17 -30 -20 -27 -4 2 -8 -2 -8 -10 0 -14 -83 -148
-95 -153 -5 -2 -8 -7 -8 -12 0 -12 -46 -64 -141 -159 -79 -79 -96 -101 -97
-125 0 -5 -4 -12 -9 -15 -5 -3 -17 -24 -27 -46 -11 -22 -27 -51 -37 -64 -10
-13 -17 -27 -14 -31 3 -4 -2 -10 -10 -14 -8 -3 -15 -12 -15 -21 0 -8 -3 -15
-7 -15 -12 0 -73 -104 -79 -134 -2 -11 -7 -22 -11 -25 -9 -7 -16 -28 -17 -53
0 -9 -3 -15 -6 -13 -3 2 -19 -25 -35 -61 -17 -35 -33 -64 -37 -64 -5 0 -8 -5
-8 -12 0 -6 -11 -26 -26 -45 -14 -18 -22 -33 -18 -33 4 0 1 -6 -7 -12 -9 -7
-37 -41 -64 -75 -26 -35 -52 -63 -56 -63 -5 0 -11 -11 -15 -25 -3 -14 -14 -31
-23 -38 -9 -6 -18 -21 -19 -32 -2 -11 -8 -22 -13 -23 -5 -2 -7 -8 -3 -13 3 -5
-2 -12 -10 -15 -9 -3 -14 -10 -11 -14 2 -4 -4 -18 -15 -30 -11 -13 -20 -29
-20 -36 0 -7 -6 -15 -12 -17 -10 -4 -9 -8 2 -16 13 -9 13 -11 -2 -11 -12 0
-21 -13 -28 -42 -17 -64 -41 -138 -61 -186 -10 -23 -19 -46 -20 -50 0 -4 -6
-16 -12 -27 -6 -11 -10 -23 -9 -27 1 -5 -2 -8 -7 -8 -5 0 -16 -18 -25 -40 -9
-22 -21 -40 -28 -40 -6 0 -9 -3 -5 -6 3 -3 -10 -30 -28 -59 -23 -35 -36 -70
-40 -106 -9 -80 -13 -104 -15 -104 -1 0 -3 -8 -5 -19 -11 -60 -29 -123 -38
-133 -5 -7 -7 -13 -3 -13 8 0 -35 -114 -46 -121 -5 -3 -9 -10 -9 -15 2 -15
-27 -82 -39 -89 -5 -3 -10 -14 -10 -24 0 -10 -7 -24 -16 -32 -8 -7 -13 -21
-11 -31 3 -10 1 -18 -4 -18 -5 0 -10 -19 -10 -42 l-2 -43 -6 35 c-7 32 -8 30
-16 -30 -7 -52 -10 -60 -16 -40 -7 23 -7 23 -8 -7 -1 -18 4 -33 10 -33 6 0 3
-7 -5 -16 -9 -8 -17 -30 -18 -47 -1 -31 -3 -43 -8 -59 -1 -5 -4 -12 -5 -18 -1
-5 -4 -12 -5 -15 -1 -3 -4 -9 -5 -15 -1 -5 -3 -11 -5 -12 -1 -2 -3 -12 -5 -23
-5 -26 -13 -59 -15 -62 -2 -2 -4 -7 -5 -13 -1 -5 -4 -12 -5 -15 -1 -3 -4 -9
-5 -15 -1 -5 -4 -12 -5 -15 -1 -3 -3 -8 -4 -12 -1 -5 -9 -24 -18 -43 -9 -19
-22 -57 -30 -85 -13 -47 -14 -73 -8 -170 2 -40 2 -40 10 -10 8 28 9 28 7 -10
0 -22 -4 -45 -9 -51 -4 -6 -10 -49 -13 -97 -3 -47 -8 -96 -11 -109 -4 -20 -11
-55 -28 -145 -3 -13 0 -23 5 -23 6 0 7 -4 4 -10 -3 -6 -2 -10 4 -10 6 0 8 -7
5 -15 -4 -8 -1 -15 5 -15 6 0 10 -3 10 -7 -1 -5 -1 -10 1 -13 1 -3 3 -16 6
-29 2 -14 10 -31 17 -40 10 -12 9 -13 -3 -6 -12 7 -13 6 -3 -6 6 -8 12 -17 12
-21 1 -5 1 -9 2 -10 2 -8 10 -47 13 -68 3 -14 7 -41 11 -60 4 -19 9 -55 10
-80 2 -25 4 -47 5 -50 3 -7 2 -72 0 -85 -1 -5 -1 -12 0 -15 6 -17 5 -50 -2
-50 -5 0 -4 -10 3 -21 6 -12 7 -19 2 -16 -4 3 -9 -26 -10 -65 -1 -39 -6 -75
-11 -82 -5 -6 -9 -26 -8 -44 0 -17 -1 -32 -4 -32 -3 0 -4 -73 -3 -162 1 -88
-3 -172 -8 -185 -8 -21 -6 -23 24 -24 l32 -1 -30 -8 -30 -8 29 -1 c24 -1 27
-4 22 -23 -3 -13 -6 -31 -6 -42 0 -11 -5 -16 -14 -13 -8 3 -23 -5 -35 -17 -23
-25 -28 -41 -9 -30 7 4 5 -2 -4 -13 -10 -11 -18 -30 -19 -44 -1 -26 33 -158
46 -179 6 -9 4 -11 -4 -5 -10 6 -10 3 0 -16 7 -13 12 -25 11 -26 -1 -2 -2 -19
-2 -39 0 -23 4 -33 11 -28 8 4 8 0 0 -15 -8 -14 -8 -21 -1 -21 7 0 8 -6 1 -18
-5 -10 -7 -23 -3 -29 4 -6 6 -44 4 -85 -4 -111 -3 -118 17 -157 28 -53 74
-169 74 -186 0 -8 5 -15 10 -15 6 0 8 -3 4 -6 -3 -4 0 -19 9 -35 8 -16 12 -29
10 -29 -3 0 -1 -14 4 -30 5 -17 12 -54 15 -83 4 -28 9 -56 12 -61 4 -5 7 -69
9 -142 2 -80 8 -142 15 -156 7 -13 21 -39 32 -58 60 -109 89 -174 116 -265 12
-38 26 -83 31 -100 5 -16 10 -45 12 -62 1 -18 6 -33 11 -33 4 0 6 -4 3 -9 -12
-18 5 -39 27 -35 22 5 22 4 0 -5 -31 -14 -29 -17 14 -37 20 -10 31 -20 25 -22
-7 -2 -12 -11 -12 -19 0 -9 3 -14 6 -10 11 11 44 -33 45 -60 1 -16 5 -41 10
-58 l8 -30 -3 33 c-1 17 1 32 6 32 4 0 9 -17 9 -37 3 -75 8 -93 19 -68 8 19 9
19 9 -2 1 -12 7 -24 14 -26 9 -4 9 -6 0 -6 -22 -2 -14 -26 15 -43 l27 -17 -30
-1 c-16 0 -25 -4 -20 -8 9 -6 12 -13 19 -47 2 -5 11 -28 21 -50 10 -22 22 -50
26 -62 29 -74 68 -132 70 -102 1 8 5 3 9 -11 7 -22 8 -20 9 14 1 48 13 41 13
-7 0 -26 6 -38 24 -47 22 -12 22 -14 6 -27 -16 -13 -15 -14 4 -10 12 3 28 1
35 -4 10 -6 11 -9 2 -9 -7 0 -13 -7 -13 -16 0 -8 4 -13 9 -10 14 9 21 -20 8
-33 -8 -8 -8 -11 1 -11 7 0 12 -9 12 -19 0 -11 4 -22 9 -25 15 -10 76 -143 73
-159 -1 -4 2 -7 7 -7 5 0 11 -13 14 -29 7 -31 47 -81 66 -81 7 0 9 -4 6 -10
-3 -5 -1 -10 5 -10 16 0 140 -123 140 -138 0 -7 4 -11 8 -8 5 3 15 -6 22 -19
7 -14 17 -25 22 -25 4 0 8 -5 8 -10 0 -6 11 -22 25 -36 14 -14 25 -29 25 -34
0 -5 6 -15 13 -22 14 -16 29 -41 75 -128 18 -36 41 -71 50 -77 34 -26 96 -79
114 -97 10 -11 18 -16 18 -12 0 5 10 -4 22 -20 13 -16 36 -43 53 -61 59 -62
85 -94 85 -103 0 -6 4 -10 8 -10 5 0 15 -12 23 -27 8 -16 22 -37 32 -47 9 -11
17 -25 17 -32 0 -7 3 -14 8 -16 4 -1 14 -16 23 -33 16 -28 120 -117 128 -110
2 2 9 -1 16 -8 7 -7 29 -25 50 -42 81 -66 194 -185 243 -254 25 -36 122 -127
122 -115 0 3 43 -38 96 -91 92 -91 130 -122 147 -117 4 1 7 -3 7 -10 0 -6 3
-8 6 -5 4 4 19 -1 33 -11 14 -10 40 -24 56 -32 17 -8 32 -17 35 -20 14 -14 96
-64 103 -62 4 1 7 -5 7 -13 0 -8 7 -15 15 -15 8 0 15 -4 15 -10 0 -5 4 -10 9
-10 5 0 35 -25 66 -55 32 -30 62 -55 66 -55 5 0 8 -4 7 -9 -4 -12 98 -111 114
-112 7 -1 16 -1 21 0 4 0 7 -4 7 -10 0 -5 14 -15 30 -20 17 -6 30 -16 30 -22
0 -6 3 -7 6 -4 4 4 15 -3 25 -15 11 -11 19 -18 19 -15 0 12 84 -55 171 -135
29 -27 55 -48 58 -49 3 0 15 -3 26 -5 11 -3 32 -6 48 -9 15 -2 31 -7 36 -9 5
-3 26 -8 47 -12 22 -3 42 -11 46 -17 4 -6 10 -8 14 -5 4 4 16 2 28 -4 11 -7
30 -13 40 -15 11 -2 25 -8 31 -13 7 -5 14 -8 17 -5 3 3 11 -1 18 -10 7 -8 20
-15 30 -15 9 0 29 -9 43 -20 14 -11 30 -20 37 -20 6 0 18 -7 27 -15 8 -8 19
-13 24 -10 5 4 9 -2 9 -11 0 -10 3 -14 7 -11 3 4 11 3 17 -2 36 -29 108 -61
144 -63 6 -1 12 -6 12 -11 0 -5 7 -7 15 -3 8 3 15 2 15 -2 0 -4 10 -9 22 -9
13 -1 24 -7 26 -13 2 -5 11 -10 21 -10 9 0 27 -7 39 -16 12 -8 22 -12 22 -9 0
4 12 -2 28 -13 15 -11 45 -25 67 -33 22 -8 42 -16 45 -19 7 -7 31 -13 53 -14
9 0 17 -3 17 -7 0 -6 12 -11 63 -24 4 -2 9 -4 12 -5 3 -1 8 -3 13 -4 4 -1 17
-8 30 -15 13 -7 30 -10 37 -7 7 2 16 -1 18 -8 3 -7 19 -12 36 -11 17 1 31 -2
31 -7 0 -4 9 -8 19 -8 11 0 23 -4 26 -10 3 -5 19 -10 36 -10 16 0 29 -5 29
-11 0 -5 5 -7 10 -4 6 3 10 1 10 -5 0 -6 6 -10 13 -9 6 1 25 -3 41 -10 16 -6
45 -14 65 -17 110 -16 155 -26 169 -37 6 -5 12 -7 12 -4 0 3 27 -3 59 -13 33
-10 62 -15 65 -12 3 3 6 0 6 -6 0 -14 95 -43 154 -47 92 -8 154 -17 212 -31
34 -8 71 -16 83 -17 11 -1 21 -4 21 -8 0 -4 17 -10 38 -14 20 -4 48 -13 62
-20 14 -7 36 -18 50 -24 18 -8 272 -11 955 -9 861 3 936 5 1005 22 97 23 119
27 153 26 19 0 26 3 21 11 -5 8 -3 9 6 4 14 -9 79 -8 120 1 14 3 39 8 55 11
17 2 36 10 43 15 8 7 12 7 12 -2 0 -9 4 -9 13 -3 6 6 19 11 27 11 8 1 47 4 85
7 39 3 90 6 115 7 25 0 56 5 70 11 14 5 34 12 45 14 10 2 22 7 25 12 5 8 53
22 66 20 4 0 10 4 13 10 4 6 25 13 46 17 22 3 45 10 50 14 9 7 44 15 110 25
11 2 20 4 20 5 0 1 16 3 35 5 73 7 104 17 146 46 25 17 53 32 64 34 11 2 27
11 36 19 8 9 23 16 33 16 9 0 22 5 28 11 6 6 17 12 24 13 8 2 27 8 42 14 16 7
31 12 34 12 3 0 12 8 20 18 8 9 12 11 8 4 -8 -15 -7 -15 45 3 41 14 80 24 125
30 11 1 20 3 20 4 0 2 16 4 35 6 70 6 115 16 118 25 2 6 8 8 13 4 5 -3 12 2
15 10 3 9 12 16 20 16 8 0 14 4 14 9 0 5 16 19 35 31 19 12 33 26 30 30 -3 5
4 7 15 5 11 -2 23 2 27 8 5 7 35 26 68 42 33 17 62 33 65 36 3 4 16 10 30 14
14 4 34 15 44 24 15 13 18 13 11 1 -8 -13 -7 -13 9 0 10 8 25 15 33 16 8 1 22
6 31 10 18 7 29 11 60 18 9 3 17 5 17 6 0 2 24 8 52 13 9 2 20 12 24 23 7 19
8 19 8 -1 1 -26 21 -6 24 24 1 11 7 21 14 21 7 0 13 7 13 15 0 9 9 15 24 15
13 0 26 7 30 15 3 8 18 15 33 15 20 0 33 8 45 28 10 15 18 21 18 15 0 -7 10
-13 23 -13 18 0 19 2 7 10 -12 8 -12 10 5 10 20 0 42 16 117 84 20 19 50 42
67 52 17 10 31 22 31 26 0 4 5 8 11 8 6 0 23 9 39 20 15 11 30 17 34 13 3 -3
6 1 6 10 0 10 8 17 20 17 11 0 23 7 26 15 4 8 12 15 20 15 8 0 14 4 14 9 0 5
10 7 23 4 12 -3 19 -3 15 2 -9 9 28 49 39 42 5 -3 15 -2 23 4 10 6 11 9 3 9
-7 0 -13 5 -13 11 0 6 14 9 35 6 19 -3 32 -1 29 4 -3 5 -11 7 -17 3 -7 -3 -3
2 8 11 18 14 20 14 23 1 6 -28 22 -17 23 17 1 23 3 26 6 10 6 -30 16 -29 39 2
10 14 23 25 27 25 12 0 62 40 51 41 -5 1 2 5 16 9 24 8 23 8 -8 9 -28 1 -31 3
-20 15 7 8 15 12 17 11 5 -6 29 19 25 26 -2 4 13 10 33 14 27 5 33 9 22 16
-11 7 -11 9 4 9 9 0 17 7 17 15 0 8 6 15 14 15 8 0 16 7 20 15 3 8 13 15 22
15 11 0 14 5 10 16 -4 11 -2 15 6 11 7 -2 29 6 48 19 19 13 28 24 20 24 -8 1
-1 7 15 15 17 7 27 14 23 14 -4 1 12 21 36 46 25 25 42 45 40 45 -2 0 15 19
38 41 24 23 42 46 40 50 -1 5 1 8 5 8 21 -3 33 2 33 16 0 8 5 15 10 15 6 0 20
11 32 25 12 14 28 25 35 25 8 0 11 5 7 12 -4 7 -3 8 4 4 10 -6 36 12 78 52 7
6 17 12 22 12 5 0 12 8 16 17 3 10 9 24 12 32 5 10 3 11 -7 5 -12 -7 -12 -5 0
9 7 9 22 17 32 17 10 0 21 9 24 20 3 11 11 20 16 20 5 0 9 7 9 16 0 8 5 12 10
9 6 -3 10 -2 10 3 0 8 31 47 78 97 10 12 17 26 15 32 -2 6 1 15 8 19 8 5 9 3
4 -6 -5 -9 -4 -11 3 -6 7 4 12 12 12 17 0 13 90 110 191 203 43 41 109 89 109
80 0 -2 11 6 24 18 13 13 22 26 20 30 -2 3 2 9 8 11 8 3 6 6 -4 6 -27 1 -22
23 13 54 17 15 32 33 33 42 1 8 13 26 26 40 13 14 20 25 17 25 -4 0 4 18 19
41 14 23 20 38 12 33 -7 -4 -2 4 12 19 50 52 60 64 60 71 0 14 37 55 44 49 3
-3 6 1 6 11 0 9 7 19 15 22 8 3 17 14 20 25 4 11 9 18 13 15 4 -2 26 21 50 50
24 30 38 54 32 54 -12 0 9 41 27 53 7 4 13 20 13 34 0 21 2 24 15 13 12 -10
15 -9 15 8 0 11 7 22 15 26 8 3 15 15 15 26 0 11 7 20 15 20 8 0 15 9 15 20 0
11 -6 20 -12 20 -9 0 -8 3 2 10 9 6 17 5 22 -3 5 -7 8 -1 8 16 0 19 5 27 18
27 17 0 20 5 63 115 39 101 172 320 201 333 5 2 8 10 8 17 0 7 7 16 16 19 9 4
14 9 11 13 -4 3 -2 12 3 19 6 6 10 16 9 20 -2 5 4 29 11 54 7 25 13 49 12 53
-1 4 3 18 10 30 7 12 13 27 14 32 5 25 68 161 77 166 5 4 7 16 4 28 -3 14 1
24 14 31 11 6 16 16 12 26 -3 8 2 20 11 27 11 8 17 29 18 67 0 31 4 47 7 37
12 -34 33 6 27 50 -3 21 -3 29 0 18 14 -48 24 -35 25 31 0 45 3 62 8 49 5 -11
6 -24 3 -29 -3 -5 0 -6 6 -2 7 4 12 18 12 32 0 13 6 24 13 24 8 0 7 4 -3 10
-13 8 -12 10 3 10 9 0 18 5 18 10 1 6 2 18 3 28 1 9 6 33 11 52 4 19 9 44 11
55 1 11 3 21 4 23 2 1 4 7 5 12 1 6 3 11 5 13 3 4 11 41 14 68 1 14 6 31 10
37 3 6 9 30 12 54 3 24 7 48 8 53 0 6 5 13 9 16 4 3 9 17 10 30 1 13 8 34 15
47 8 13 15 31 17 41 3 16 13 41 55 136 13 31 23 67 25 95 1 14 5 44 9 68 5 27
3 42 -4 42 -6 0 -8 15 -4 42 6 38 5 41 -12 35 -18 -7 -18 -6 0 8 11 8 23 15
28 15 4 0 8 21 8 48 0 34 -3 43 -10 32 -7 -10 -10 -11 -10 -2 0 7 7 15 15 18
11 5 15 23 16 68 1 33 4 51 6 39 7 -36 20 -27 21 15 2 38 4 49 22 117 6 22 12
45 13 50 1 6 6 16 10 23 5 6 6 12 2 12 -3 0 -1 8 4 19 20 37 22 83 5 108 -9
14 -12 23 -6 19 5 -3 1 11 -9 31 -11 21 -19 43 -19 50 0 7 -4 13 -9 13 -6 0
-8 9 -6 20 2 11 0 20 -6 20 -5 0 -8 3 -8 8 5 31 -2 43 -23 37 -22 -7 -22 -6
-5 7 17 13 17 15 3 27 -18 15 -22 51 -5 51 5 0 8 3 6 8 -6 9 -17 72 -23 130
-2 24 -6 48 -10 53 -3 5 1 9 8 9 8 0 9 3 3 8 -5 4 -10 46 -10 95 0 51 4 87 10
87 6 0 3 5 -5 10 -8 5 -10 10 -4 10 7 0 12 12 11 28 0 15 3 50 8 77 4 28 7 56
8 63 0 6 4 12 8 12 4 0 6 6 6 13 -2 23 15 97 22 97 4 0 7 91 7 203 -1 184 2
237 20 335 3 18 0 56 -5 85 -26 124 -31 153 -37 237 -3 35 -7 66 -9 69 -3 2 0
10 6 18 6 7 8 13 3 13 -5 0 -8 28 -7 62 1 35 -2 68 -7 73 -4 6 -13 34 -20 63
-6 28 -16 52 -22 52 -5 0 -7 4 -4 9 3 4 1 23 -4 42 -6 19 -13 54 -16 79 -10
73 -12 85 -14 85 -1 0 -4 47 -7 104 -4 96 -7 109 -34 148 -17 24 -28 43 -25
43 5 0 -27 52 -51 85 -5 6 -9 17 -11 25 -2 8 -10 31 -19 50 -10 19 -18 41 -19
49 -2 8 -6 17 -11 20 -5 3 -8 13 -8 21 1 8 -3 21 -8 28 -5 6 -6 12 -3 12 4 0
1 10 -6 23 -7 12 -13 27 -14 32 -1 9 -11 61 -21 110 -2 11 -6 31 -9 45 -8 42
-36 110 -45 110 -5 0 -9 7 -9 16 0 8 -5 25 -12 37 -7 12 -13 28 -14 36 -2 8
-8 17 -14 21 -7 4 -11 11 -10 16 0 5 -2 18 -6 29 -3 11 -8 29 -10 40 -2 11 -7
27 -11 35 -8 19 -11 30 -17 55 -2 11 -5 20 -6 20 -1 0 -3 9 -5 20 -1 11 -5 36
-8 55 -8 55 -38 114 -87 173 -8 10 -15 21 -15 25 -2 19 -48 94 -61 99 -13 5
-13 8 -2 15 10 7 10 11 1 15 -7 2 -13 13 -13 23 0 10 -4 21 -8 24 -4 3 -14 28
-22 55 -7 28 -16 51 -20 51 -3 0 -6 8 -6 18 -1 16 -3 25 -23 104 -5 20 -7 39
-4 42 10 9 -110 116 -131 116 -16 0 -18 2 -7 9 11 7 7 10 -15 13 -17 2 -29 9
-29 18 -1 8 -6 14 -13 12 -7 -1 -12 5 -12 13 0 8 -6 15 -12 15 -9 0 -8 4 2 10
13 9 7 14 -12 11 -5 0 -8 8 -8 19 0 11 -7 23 -15 26 -8 4 -15 12 -15 19 0 7
-9 24 -21 39 -11 14 -18 26 -15 26 3 0 -4 12 -17 26 -12 14 -22 30 -22 34 0 5
-8 19 -18 30 -10 12 -15 25 -12 30 4 6 2 10 -3 10 -5 0 -15 14 -22 30 -9 22
-19 30 -39 31 l-26 1 25 8 25 7 -27 8 c-19 5 -28 14 -28 27 0 10 -3 17 -7 15
-10 -6 -34 19 -26 27 3 3 -6 10 -21 16 -14 5 -25 14 -24 19 2 5 -5 17 -14 28
-10 10 -29 30 -43 46 -14 15 -22 27 -18 27 4 0 3 4 -2 8 -18 13 -71 86 -101
139 -15 28 -31 50 -35 47 -4 -2 -6 4 -5 14 1 11 -5 16 -17 14 -12 -2 -21 4
-24 17 -3 12 -9 18 -14 15 -5 -2 -11 7 -15 21 -3 14 -12 25 -20 25 -8 0 -14 7
-14 15 0 8 -7 15 -15 15 -8 0 -15 5 -15 11 0 5 -5 7 -10 4 -6 -4 -9 -2 -8 3 4
12 -49 62 -64 62 -6 0 -9 2 -6 5 3 4 -21 34 -53 68 -80 84 -88 94 -81 101 3 3
0 6 -6 6 -7 0 -12 5 -12 11 0 15 -26 39 -34 32 -3 -4 -6 3 -6 15 0 23 -16 39
-22 21 -2 -7 -10 -4 -18 7 -9 11 -10 15 -2 10 6 -4 12 -3 12 3 0 5 -14 13 -31
16 -23 5 -28 9 -18 16 8 5 9 9 3 9 -17 0 -133 97 -211 177 -40 41 -73 76 -73
79 0 4 -26 37 -48 60 -7 8 -10 14 -5 14 19 1 -24 20 -44 20 -13 0 -23 5 -23
10 0 6 -7 10 -15 10 -9 0 -12 6 -8 17 5 12 2 15 -10 10 -11 -4 -18 1 -22 14
-4 10 -11 19 -17 19 -6 0 -21 11 -33 24 -13 14 -25 22 -28 19 -3 -3 -12 4 -19
16 -7 12 -21 21 -30 21 -10 0 -18 7 -18 15 0 8 -7 15 -15 15 -8 0 -15 7 -15
15 0 8 -7 15 -15 15 -8 0 -15 4 -15 9 0 5 -11 12 -25 15 -14 4 -23 11 -20 16
3 5 -3 11 -14 15 -10 3 -32 18 -49 33 -50 44 -62 53 -62 45 0 -4 -7 3 -16 15
-8 12 -22 22 -30 22 -8 0 -14 5 -14 10 0 6 -8 10 -19 10 -10 0 -24 7 -31 15
-7 8 -19 15 -26 15 -8 0 -14 5 -14 11 0 5 -4 8 -9 4 -5 -3 -17 2 -25 11 -9 8
-16 12 -16 9 0 -4 -17 7 -39 24 -21 17 -41 28 -45 24 -3 -3 -6 1 -6 10 0 9 -6
17 -12 17 -7 0 -31 16 -52 35 -21 19 -43 32 -49 28 -6 -3 -7 -1 -3 5 6 11 -43
52 -63 52 -6 0 -11 4 -11 10 0 5 -7 7 -15 4 -8 -4 -15 -1 -15 5 0 6 -7 8 -15
5 -8 -4 -15 -1 -15 5 0 6 -9 11 -19 11 -11 0 -23 5 -26 10 -4 6 -11 8 -16 5
-5 -4 -9 -1 -9 5 0 6 -4 8 -10 5 -5 -3 -10 -1 -10 5 0 6 -4 9 -9 5 -5 -3 -17
3 -27 12 -10 10 -19 17 -21 16 -10 -9 -23 -1 -17 10 4 6 4 9 -1 5 -7 -7 -61
17 -75 33 -3 3 -23 16 -45 29 -40 25 -72 49 -107 83 -10 9 -20 17 -23 17 -3 0
-14 8 -24 18 -38 34 -50 42 -65 42 -8 0 -16 4 -18 10 -4 13 -110 51 -125 46
-6 -3 -13 0 -15 6 -2 6 -11 4 -21 -6 -15 -15 -17 -15 -17 -2 0 9 -12 18 -27
22 -16 3 -44 12 -63 19 -19 7 -39 14 -45 15 -5 1 -25 8 -43 16 -18 7 -40 15
-50 16 -9 2 -19 5 -22 8 -3 3 -52 29 -109 59 -68 35 -106 50 -109 42 -3 -8
-11 -4 -22 10 -11 11 -24 18 -30 14 -12 -7 -70 15 -70 27 0 5 -5 8 -11 8 -5 0
-7 -4 -4 -10 3 -5 2 -10 -4 -10 -5 0 -12 6 -14 13 -4 10 -6 10 -6 0 -1 -7 -6
-13 -12 -13 -5 0 -7 5 -4 10 3 6 0 12 -7 14 -35 9 -142 35 -178 42 -13 3 -29
9 -35 14 -7 5 -20 11 -31 13 -10 2 -35 10 -54 19 -19 8 -52 21 -73 28 -20 8
-37 17 -37 20 0 3 -17 5 -37 5 -34 0 -99 9 -200 29 -18 3 -43 10 -57 16 -15 5
-26 8 -26 5 0 -2 -17 3 -37 12 -21 8 -40 15 -43 15 -3 0 -16 5 -30 11 -14 5
-34 9 -45 9 -11 -1 -23 4 -27 11 -6 9 -8 9 -8 -1 0 -8 -9 -4 -22 10 -13 13
-42 33 -65 46 l-41 22 -1151 0 c-678 0 -1150 -4 -1146 -9 8 -14 -15 -18 -85
-14 -46 2 -59 0 -45 -6 17 -8 16 -10 -12 -10 -27 -1 -33 3 -34 22 -1 18 -3 16
-9 -8 l-8 -30 -1 28 -1 27 -88 0 c-74 0 -93 -3 -113 -20z m8490 -7803 c12 -15
12 -17 -3 -11 -9 3 -16 13 -16 22 0 8 1 13 3 11 1 -2 9 -12 16 -22z m-8 -294
c-8 -15 -10 -15 -11 -2 0 17 10 32 18 25 2 -3 -1 -13 -7 -23z m-3441 -5097 c0
-3 -4 -8 -10 -11 -5 -3 -10 -1 -10 4 0 6 5 11 10 11 6 0 10 -2 10 -4z"/>
<path d="M571 4294 c0 -11 3 -14 6 -6 3 7 2 16 -1 19 -3 4 -6 -2 -5 -13z"/>
<path d="M11250 1330 c0 -5 5 -10 10 -10 6 0 10 5 10 10 0 6 -4 10 -10 10 -5
0 -10 -4 -10 -10z"/>
<path d="M10680 959 c0 -5 5 -7 10 -4 6 3 10 8 10 11 0 2 -4 4 -10 4 -5 0 -10
-5 -10 -11z"/>
<path d="M10638 933 c7 -3 16 -2 19 1 4 3 -2 6 -13 5 -11 0 -14 -3 -6 -6z"/>
</g>
</svg>
